<?xml version="1.0" encoding="UTF-8"?><svg xmlns="http://www.w3.org/2000/svg" xmlns:xlink="http://www.w3.org/1999/xlink" viewBox="0 0 259 259"><defs><style>.cls-1{fill:#fff;}.cls-2{fill:#4c4c4c;}.cls-3{fill:url(#Unbenannter_Verlauf_2);}</style><linearGradient id="Unbenannter_Verlauf_2" x1="128.35" y1="73.61" x2="129.64" y2="230.46" gradientTransform="translate(0 276) scale(1 -1)" gradientUnits="userSpaceOnUse"><stop offset="0" stop-color="#684795"/><stop offset=".11" stop-color="#5661a9"/><stop offset=".29" stop-color="#3e84c3"/><stop offset=".38" stop-color="#3591cd"/><stop offset=".57" stop-color="#3196cf"/><stop offset=".8" stop-color="#25a6d5"/><stop offset="1" stop-color="#16b8dd"/></linearGradient></defs><g id="Ebene_3"><rect class="cls-1" width="259" height="259"/></g><g id="Cloud_Foundry"><g><path class="cls-2" d="M126.55,35.99h5.41c.05,.18,.18,.21,.33,.22,4.3,.19,8.56,.85,12.71,1.98l4.47,1.43c3.07,1.27,6.07,2.71,8.98,4.29l1.79,1.09,2.71,1.85c2.49,1.9,4.87,3.93,7.13,6.1,3.05,3.08,5.79,6.45,8.19,10.06l2.63,4.55c.69,1.48,1.4,2.97,2.1,4.45,1.12,2.95,2.09,5.95,2.9,8.99,.3,1.5,.58,3,.87,4.51s.32,2.99,.48,4.49l.07,4.51-.22,4.49c-.19,1.5-.36,3-.55,4.5l-.93,4.48c-.22,.43-.35,.9-.37,1.38l-.98,3.12-1.75,4.51c-1.48,3.09-3.14,6.09-4.99,8.98l-1.3,1.85-2.06,2.68c-2.14,2.38-4.35,4.68-6.71,6.84l-2.66,2.18-1.85,1.34c-2.89,1.91-5.9,3.63-9.01,5.16l-4.77,1.97c-.49,.1-.85,.11-.82-.59,.05-1.14,0-2.28,0-3.42,.19-1.5,.4-3.01,.6-4.51,.62-3.08,1.55-6.08,2.78-8.97,1.58-3.21,3.53-6.23,5.81-8.99,.35-.24,.64-.56,.85-.93,1.2-1.04,2.24-2.25,3.09-3.59,.58-.66,1.06-1.38,1.45-2.16,.56-.7,1.02-1.47,1.35-2.3,.84-1.33,1.51-2.77,2-4.27,1.28-2.94,2.1-6.06,2.43-9.25,.26-1.48,.38-2.98,.38-4.49,.07-1.5,0-3.01-.19-4.51-.25-3.07-.92-6.1-1.99-8.99-.46-1.56-1.08-3.07-1.85-4.51-.55-1.33-1.29-2.58-2.19-3.7,0-.31-.15-.61-.41-.8-2.24-3.52-5.08-6.61-8.41-9.13-1.35-1.16-2.83-2.18-4.4-3.02-2.84-1.77-5.93-3.11-9.17-3.96-1.47-.5-3-.83-4.55-.98-1.47-.36-2.98-.51-4.5-.45-1.49-.19-3-.19-4.5,0-1.51-.06-3.03,.1-4.5,.45-1.55,.14-3.07,.47-4.54,.98-3.21,.84-6.28,2.17-9.09,3.92-1.58,.84-3.05,1.85-4.4,3.02-3.23,2.45-6.02,5.44-8.22,8.84-.4,.39-.72,.86-.93,1.39-.72,.97-1.31,2.03-1.77,3.15-.85,1.49-1.52,3.08-1.99,4.74-.35,.71-.58,1.47-.68,2.26-.09,.16-.16,.33-.22,.51-1.23,4.56-1.6,9.3-1.1,14,.32,3.61,1.22,7.14,2.66,10.46,.48,1.5,1.15,2.94,2,4.27,.34,.83,.79,1.61,1.35,2.31,.39,.78,.88,1.5,1.44,2.16,.88,1.33,1.91,2.55,3.07,3.65,.15,.35,.39,.64,.69,.86,2.24,2.83,4.23,5.85,5.96,9.02,1.39,2.87,2.48,5.88,3.25,8.97l.5,4.5c-.07,1.15-.06,2.3-.21,3.45-.09,.68-.42,.68-.93,.56l-4.78-1.98c-3-1.49-5.91-3.15-8.71-5l-2.11-1.54-2.66-2.18c-2.36-2.16-4.57-4.46-6.71-6.83l-2.06-2.69-1.3-1.85c-1.83-2.89-3.5-5.89-4.98-8.98l-1.76-4.51-.98-3.12c-.03-.48-.15-.95-.36-1.38l-.93-4.48-.54-4.5-.23-4.49,.07-4.51,.48-4.49,.87-4.51c.81-3.02,1.78-6,2.9-8.92l2.1-4.45,2.63-4.55,1.85-2.68c.54-.48,.95-1.1,1.17-1.79,.41,0,.52-.38,.72-.62,1.05-1.2,2.08-2.44,3.16-3.62,2.6-2.7,5.42-5.18,8.44-7.4l2.26-1.55,2.24-1.37c2.89-1.61,5.87-3.06,8.91-4.36l4.45-1.44c3.55-.9,7.16-1.52,10.81-1.85,.79-.12,1.58,.13,2.29-.34Z"/><path class="cls-2" d="M131.5,224.23h-4.51l-4.49-.18c-.87,.06-1.24-.39-1.59-1.17-1.48-3.07-4.04-5.49-7.18-6.8-.25-.25-.57-.41-.93-.45-1.18-.68-2.48-1.14-3.83-1.34-1.44-.54-2.96-.83-4.5-.86-1.49-.22-3-.28-4.51-.18-1.51-.04-3.01,.09-4.49,.4-1.53,.13-3.04,.44-4.5,.93-1.18,.19-2.32,.55-3.4,1.07l-1.11,.38-.57-.17-3.91-2.04c-2.03-1.18-3.98-2.49-5.9-3.84-.79-.56-1.14-.93-.1-1.62,.6-.39,1.1-.9,1.48-1.51,1.21-1.22,2.02-2.78,2.31-4.47,.53-2.14-.35-3.77-1.85-5.16-1.41-1.23-3.11-2.07-4.93-2.47-1.45-.51-2.96-.8-4.49-.86-.7-.31-1.64,.32-2.21-.52,.33-1.49,.39-3.03,.85-4.5,.16-.36,.3-.72,.46-1.07s.21-1.1,.93-1.23c3.15-.54,6.18-1.59,8.98-3.12,1.71-.72,3.17-1.95,4.15-3.52,1.05-1.85,.34-3.7-1.85-4.58-.21-.42,.15-.49,.38-.64l1.79-1.09c.27-.12,.55-.22,.8-.36,2.53-1.31,5-2.85,8.07-2.22h.1c1.51,.1,3.02,.03,4.51-.2,1.53-.1,3.03-.38,4.5-.83,1.63-.27,3.2-.85,4.63-1.7,.92-.39,1.69-1.06,2.2-1.92,.18-1.3,1.27-1.17,2.14-1.38l4.5-.66q1.85-.06,2.26,1.85c.02,.07,.04,.14,.06,.21,.25,1.51,.07,3.06-.53,4.47-.57,.91-1.26,1.74-2.06,2.45-.91,.51-1.87,.92-2.86,1.23-2.03,.61-4,1.42-5.87,2.43-1.6,.71-3.07,1.66-4.36,2.84-.06,0-.11,.03-.14,.08-1.53,1.13-2.74,2.65-3.5,4.39-.74,1.4-.93,3.02-.54,4.55,.21,1.49,.85,2.88,1.85,4.01,2.92,3.61,6.86,5.62,11.18,7.06,1.44,.64,2.95,1.09,4.51,1.34,1.45,.48,2.95,.79,4.48,.93,1.11,.28,2.24,.43,3.39,.44,.2,.21,.45,.14,.69,.11,1.63,.25,3.29,.35,4.94,.28,1.49,.18,3,.18,4.5,0,3.01,.02,6.02-.23,8.99-.74,1.52-.22,3.02-.52,4.51-.93,1.53-.31,3.03-.76,4.49-1.33,3.39-.99,6.53-2.66,9.25-4.91,.62-.42,1.16-.93,1.6-1.53,1.33-1.27,2.21-2.93,2.52-4.74,.39-1.52,.2-3.13-.53-4.52-.8-1.84-2.08-3.44-3.7-4.63-1.4-1.16-2.96-2.13-4.63-2.87l-1.7-.83c-2.28-1.12-4.81-1.55-7.08-2.69-.93-.76-1.69-1.71-2.25-2.78-.49-1.34-.61-2.79-.32-4.19l.08-.32q.42-1.85,2.24-1.76l4.24,.72c.05,.53,.32,1.01,.75,1.32,1.09,1.15,2.47,1.98,4,2.4,1.45,.56,2.96,.95,4.51,1.16,1.48,.33,2.98,.49,4.5,.49,1.49,.2,3,.2,4.5,0,1.12-.12,2.25,.08,3.25,.59,1.91,.93,3.83,1.85,5.75,2.78l.93,.61-1.07,.93c-1.44,1.54-1.38,2.97,.21,4.63,1.24,1.32,2.78,2.33,4.49,2.93,1.4,.76,2.91,1.31,4.48,1.64,.47,.3,1.01,.47,1.57,.47,2.5,.07,3.7,1.57,4.21,3.78,.03,.07,.07,.13,.11,.19,.2,.86,.42,1.73,.62,2.6,.17,.68,0,.93-.81,1-1.94,.08-3.86,.46-5.68,1.15-.83,.21-1.62,.56-2.34,1.04-3.64,2.07-4.38,5.29-2.07,8.78,1.19,1.62,2.59,3.07,4.17,4.31-1.27,1.22-2.62,2.34-4.05,3.36l-.23,.19-4.48,2.78c-.91,.67-2.13,.74-3.11,.18-.45-.17-.91-.29-1.39-.37-1.45-.51-2.96-.82-4.49-.93-1.47-.35-2.99-.49-4.51-.4-1.49-.19-3-.19-4.5,0-1.53,.1-3.04,.35-4.51,.75-3.37,.65-6.48,2.23-9.01,4.54-.9,.7-1.66,1.56-2.24,2.53-.65,.76-1.1,1.68-1.3,2.66-.08,.45-.47,.77-.93,.76l-4.51,.29-4.46,.11Z"/><path class="cls-3" d="M157.36,100.73c.7-2.02,1.08-4.13,1.13-6.26,.09-4.69-1.32-9.29-4.04-13.12l-.46-.66c-.48-.48-.93-1-1.35-1.54-.73-.96-1.53-1.86-2.41-2.69l-.76-.65c-2.87-1.85-5.65-3.93-8.96-5.02l-4.51-1.31-3.83-.48c-1.94-.17-3.88-.17-5.82,0l-3.83,.49-4.51,1.3c-3.19,1.29-6.21,2.98-8.97,5.03l-.76,.65-3.53,3.81c-.18,.33-.26,.75-.67,.93l-2.3,4.26c-.85,2.06-1.37,4.25-1.54,6.48-.39,.81-.07,1.69-.23,2.53,.12,3.09,.81,6.14,2.04,8.98,1.85,3.61,4.44,6.79,7.6,9.33,1.5,1.17,2.81,2.58,3.86,4.16l.29,.42c1.21,1.18,1.85,2.78,2.88,4.07l.15,.08-.15,.17c1.59,2.74,2.8,5.68,3.61,8.74,.59,1.44,.96,2.96,1.11,4.51l.44,1.55c.11,.13,.22,.27,.34,.4h0l-.34-.41c-.09,.99,.37,1.93,.21,2.93,.26,1.49,.33,3,.21,4.51,.09,1.49,.09,2.99,0,4.49v8.99c.02,1.5-.04,3.01-.19,4.51-.08,1.5,.39,3.03-.26,4.49,.13,1.5,.08,3.02-.17,4.51,.08,1.5-.01,3.01-.26,4.5,.04,1.51-.05,3.01-.24,4.51,.12,.53-.06,.81-.64,.93-.71,.08-1.43,.2-2.15,.31l-4.8,1.33c-1.26,.54-2.45,1.2-3.57,1.99-1.55,1.26-1.9,2.29-1.37,4.18l.66,.93c1.2,1.18,2.58,2.16,4.09,2.9,1.5,.78,3.14,1.16,4.63,1.85l4.5,.93,4.49,.46h4.51l4.49-.45,4.5-.93c.41-.15,.82-.31,1.24-.44,2.81-.8,5.39-2.26,7.52-4.26l.65-.93c.65-1.71,.06-3.01-1.29-4.12-1.16-.81-2.4-1.5-3.7-2.04l-4.78-1.35c-.72-.1-1.44-.23-2.17-.31-.58-.06-.75-.36-.62-.93-.2-1.49-.28-3-.25-4.51-.24-1.49-.33-2.99-.26-4.5-.19-1.49-.68-2.97-.31-4.51-.04-.03-.08-.06-.09-.11,0-.28,.08-.55,.12-.81l-.08-.42-.06-3.15c-.16-1.5-.23-3-.19-4.51v-8.99c-.09-1.49-.09-2.99,0-4.49v-3.63l.22-.93c0-1.52,.23-3.02,.66-4.48,.15-1.55,.52-3.07,1.1-4.51,.88-3.12,2.09-6.13,3.61-8.99,.9-1.6,1.96-3.1,3.16-4.48h0c1.2-1.71,2.64-3.24,4.27-4.53,2.16-1.77,4.03-3.86,5.55-6.21,.57-.93,1.07-1.85,1.6-2.78l.53-1.57c-.14-.05-.28-.14-.2-.27s.22-.1,.33-.15c.06-.03,.09-.1,.06-.16h0l.13-.29,.16-.28Z"/></g></g></svg>