<svg width="1800" height="389" viewBox="0 0 1800 389" fill="none" xmlns="http://www.w3.org/2000/svg">
<g clip-path="url(#clip0_123_2491)">
<rect width="1800" height="388" transform="translate(0 0.112305)" fill="white"/>
<g clip-path="url(#clip1_123_2491)">
<path fill-rule="evenodd" clip-rule="evenodd" d="M96.3367 69.6271C94.3305 73.4167 92.0639 77.0473 89.5607 80.4949C73.0558 103.228 46.267 118.01 16.0256 118.01C15.5261 118.01 15.0275 118.006 14.5299 117.998V118.01H0V182.112H43.3761C60.9607 182.112 77.378 177.114 91.2848 168.461C98.6629 163.871 105.334 158.251 111.099 151.804C113.532 149.082 115.803 146.213 117.898 143.212C119.373 140.571 120.977 138.012 122.701 135.543C139.112 112.027 166.371 96.6422 197.222 96.6422C197.865 96.6422 198.506 96.6489 199.145 96.6622V96.6422H213.675V32.1123H169.872C152.287 32.1123 135.87 37.1103 121.963 45.7633C115.507 49.7802 109.592 54.5847 104.353 60.0424C103.605 60.8221 102.87 61.6151 102.149 62.4211C100.222 64.5771 98.3958 66.8256 96.6787 69.1593C96.5642 69.3148 96.4502 69.4708 96.3367 69.6271Z" fill="url(#paint0_linear_123_2491)"/>
<path d="M213.675 116.728C202.451 116.728 191.337 118.419 180.967 121.705C170.598 124.991 161.175 129.807 153.239 135.878C145.302 141.95 139.006 149.158 134.711 157.091C130.416 165.024 128.205 173.526 128.205 182.112L213.675 182.112V116.728Z" fill="url(#paint1_linear_123_2491)"/>
<path d="M68.8034 62.2405C68.8034 78.8799 55.3146 92.3687 38.6752 92.3687C22.0359 92.3687 8.54701 78.8799 8.54701 62.2405C8.54701 45.6012 22.0359 32.1123 38.6752 32.1123C55.3146 32.1123 68.8034 45.6012 68.8034 62.2405Z" fill="url(#paint2_linear_123_2491)"/>
</g>
<g clip-path="url(#clip2_123_2491)">
<path fill-rule="evenodd" clip-rule="evenodd" d="M322.012 69.6271C320.006 73.4167 317.74 77.0473 315.237 80.4949C298.732 103.228 271.943 118.01 241.701 118.01C241.202 118.01 240.703 118.006 240.206 117.998V118.01H225.676V182.112H269.052C286.636 182.112 303.054 177.114 316.961 168.461C324.339 163.871 331.01 158.251 336.774 151.804C339.207 149.082 341.479 146.213 343.573 143.212C345.049 140.571 346.653 138.012 348.376 135.543C364.788 112.027 392.046 96.6422 422.898 96.6422C423.541 96.6422 424.182 96.6489 424.821 96.6622V96.6422H439.351V32.1123H395.548C377.963 32.1123 361.546 37.1103 347.639 45.7633C341.183 49.7802 335.268 54.5847 330.029 60.0424C329.28 60.8221 328.546 61.6151 327.825 62.4211C325.898 64.5771 324.072 66.8256 322.354 69.1593C322.24 69.3148 322.126 69.4708 322.012 69.6271Z" fill="url(#paint3_linear_123_2491)"/>
<path d="M439.351 116.728C428.127 116.728 417.013 118.419 406.643 121.705C396.273 124.991 386.851 129.807 378.915 135.878C370.978 141.95 364.682 149.158 360.387 157.091C356.092 165.024 353.881 173.526 353.881 182.112L439.351 182.112V116.728Z" fill="url(#paint4_linear_123_2491)"/>
<path d="M294.479 62.2405C294.479 78.8799 280.99 92.3687 264.351 92.3687C247.712 92.3687 234.223 78.8799 234.223 62.2405C234.223 45.6012 247.712 32.1123 264.351 32.1123C280.99 32.1123 294.479 45.6012 294.479 62.2405Z" fill="url(#paint5_linear_123_2491)"/>
</g>
<g clip-path="url(#clip3_123_2491)">
<path fill-rule="evenodd" clip-rule="evenodd" d="M547.688 69.6271C545.682 73.4167 543.415 77.0473 540.912 80.4949C524.407 103.228 497.619 118.01 467.377 118.01C466.878 118.01 466.379 118.006 465.881 117.998V118.01H451.352V182.112H494.728C512.312 182.112 528.73 177.114 542.636 168.461C550.014 163.871 556.686 158.251 562.45 151.804C564.883 149.082 567.155 146.213 569.249 143.212C570.725 140.571 572.329 138.012 574.052 135.543C590.464 112.027 617.722 96.6422 648.574 96.6422C649.216 96.6422 649.857 96.6489 650.497 96.6622V96.6422H665.027V32.1123H621.223C603.639 32.1123 587.221 37.1103 573.315 45.7633C566.859 49.7802 560.944 54.5847 555.705 60.0424C554.956 60.8221 554.221 61.6151 553.501 62.4211C551.573 64.5771 549.747 66.8256 548.03 69.1593C547.916 69.3148 547.802 69.4708 547.688 69.6271Z" fill="url(#paint6_linear_123_2491)"/>
<path d="M665.027 116.728C653.803 116.728 642.689 118.419 632.319 121.705C621.949 124.991 612.527 129.807 604.59 135.878C596.654 141.95 590.358 149.158 586.063 157.091C581.767 165.024 579.557 173.526 579.557 182.112L665.027 182.112V116.728Z" fill="url(#paint7_linear_123_2491)"/>
<path d="M520.155 62.2405C520.155 78.8799 506.666 92.3687 490.027 92.3687C473.387 92.3687 459.899 78.8799 459.899 62.2405C459.899 45.6012 473.387 32.1123 490.027 32.1123C506.666 32.1123 520.155 45.6012 520.155 62.2405Z" fill="url(#paint8_linear_123_2491)"/>
</g>
<g clip-path="url(#clip4_123_2491)">
<path fill-rule="evenodd" clip-rule="evenodd" d="M773.364 69.6271C771.358 73.4167 769.091 77.0473 766.588 80.4949C750.083 103.228 723.294 118.01 693.053 118.01C692.553 118.01 692.055 118.006 691.557 117.998V118.01H677.027V182.112H720.403C737.988 182.112 754.405 177.114 768.312 168.461C775.69 163.871 782.362 158.251 788.126 151.804C790.559 149.082 792.83 146.213 794.925 143.212C796.401 140.571 798.005 138.012 799.728 135.543C816.14 112.027 843.398 96.6422 874.25 96.6422C874.892 96.6422 875.533 96.6489 876.173 96.6622V96.6422H890.703V32.1123H846.899C829.315 32.1123 812.897 37.1103 798.99 45.7633C792.535 49.7802 786.62 54.5847 781.38 60.0424C780.632 60.8221 779.897 61.6151 779.177 62.4211C777.249 64.5771 775.423 66.8256 773.706 69.1593C773.592 69.3148 773.478 69.4708 773.364 69.6271Z" fill="url(#paint9_linear_123_2491)"/>
<path d="M890.703 116.728C879.478 116.728 868.364 118.419 857.995 121.705C847.625 124.991 838.203 129.807 830.266 135.878C822.329 141.95 816.034 149.158 811.738 157.091C807.443 165.024 805.232 173.526 805.232 182.112L890.703 182.112V116.728Z" fill="url(#paint10_linear_123_2491)"/>
<path d="M745.831 62.2405C745.831 78.8799 732.342 92.3687 715.703 92.3687C699.063 92.3687 685.574 78.8799 685.574 62.2405C685.574 45.6012 699.063 32.1123 715.703 32.1123C732.342 32.1123 745.831 45.6012 745.831 62.2405Z" fill="url(#paint11_linear_123_2491)"/>
</g>
<g clip-path="url(#clip5_123_2491)">
<path fill-rule="evenodd" clip-rule="evenodd" d="M999.036 69.6271C997.03 73.4167 994.763 77.0473 992.26 80.4949C975.755 103.228 948.966 118.01 918.725 118.01C918.225 118.01 917.727 118.006 917.229 117.998V118.01H902.699V182.112H946.075C963.66 182.112 980.077 177.114 993.984 168.461C1001.36 163.871 1008.03 158.251 1013.8 151.804C1016.23 149.082 1018.5 146.213 1020.6 143.212C1022.07 140.571 1023.68 138.012 1025.4 135.543C1041.81 112.027 1069.07 96.6422 1099.92 96.6422C1100.56 96.6422 1101.21 96.6489 1101.84 96.6622V96.6422H1116.37V32.1123H1072.57C1054.99 32.1123 1038.57 37.1103 1024.66 45.7633C1018.21 49.7802 1012.29 54.5847 1007.05 60.0424C1006.3 60.8221 1005.57 61.6151 1004.85 62.4211C1002.92 64.5771 1001.1 66.8256 999.378 69.1593C999.263 69.3148 999.149 69.4708 999.036 69.6271Z" fill="url(#paint12_linear_123_2491)"/>
<path d="M1116.37 116.728C1105.15 116.728 1094.04 118.419 1083.67 121.705C1073.3 124.991 1063.87 129.807 1055.94 135.878C1048 141.95 1041.71 149.158 1037.41 157.091C1033.12 165.024 1030.9 173.526 1030.9 182.112L1116.37 182.112V116.728Z" fill="url(#paint13_linear_123_2491)"/>
<path d="M971.503 62.2405C971.503 78.8799 958.014 92.3687 941.374 92.3687C924.735 92.3687 911.246 78.8799 911.246 62.2405C911.246 45.6012 924.735 32.1123 941.374 32.1123C958.014 32.1123 971.503 45.6012 971.503 62.2405Z" fill="url(#paint14_linear_123_2491)"/>
</g>
<g clip-path="url(#clip6_123_2491)">
<path fill-rule="evenodd" clip-rule="evenodd" d="M1224.71 69.6271C1222.71 73.4167 1220.44 77.0473 1217.94 80.4949C1201.43 103.228 1174.64 118.01 1144.4 118.01C1143.9 118.01 1143.4 118.006 1142.9 117.998V118.01H1128.38V182.112H1171.75C1189.34 182.112 1205.75 177.114 1219.66 168.461C1227.04 163.871 1233.71 158.251 1239.47 151.804C1241.91 149.082 1244.18 146.213 1246.27 143.212C1247.75 140.571 1249.35 138.012 1251.08 135.543C1267.49 112.027 1294.75 96.6422 1325.6 96.6422C1326.24 96.6422 1326.88 96.6489 1327.52 96.6622V96.6422H1342.05V32.1123H1298.25C1280.66 32.1123 1264.24 37.1103 1250.34 45.7633C1243.88 49.7802 1237.97 54.5847 1232.73 60.0424C1231.98 60.8221 1231.24 61.6151 1230.52 62.4211C1228.6 64.5771 1226.77 66.8256 1225.05 69.1593C1224.94 69.3148 1224.83 69.4708 1224.71 69.6271Z" fill="url(#paint15_linear_123_2491)"/>
<path d="M1342.05 116.728C1330.83 116.728 1319.71 118.419 1309.34 121.705C1298.97 124.991 1289.55 129.807 1281.61 135.878C1273.68 141.95 1267.38 149.158 1263.09 157.091C1258.79 165.024 1256.58 173.526 1256.58 182.112L1342.05 182.112V116.728Z" fill="url(#paint16_linear_123_2491)"/>
<path d="M1197.18 62.2405C1197.18 78.8799 1183.69 92.3687 1167.05 92.3687C1150.41 92.3687 1136.92 78.8799 1136.92 62.2405C1136.92 45.6012 1150.41 32.1123 1167.05 32.1123C1183.69 32.1123 1197.18 45.6012 1197.18 62.2405Z" fill="url(#paint17_linear_123_2491)"/>
</g>
<g clip-path="url(#clip7_123_2491)">
<path fill-rule="evenodd" clip-rule="evenodd" d="M1450.39 69.6271C1448.38 73.4167 1446.11 77.0473 1443.61 80.4949C1427.11 103.228 1400.32 118.01 1370.08 118.01C1369.58 118.01 1369.08 118.006 1368.58 117.998V118.01H1354.05V182.112H1397.43C1415.01 182.112 1431.43 177.114 1445.34 168.461C1452.71 163.871 1459.39 158.251 1465.15 151.804C1467.58 149.082 1469.85 146.213 1471.95 143.212C1473.42 140.571 1475.03 138.012 1476.75 135.543C1493.16 112.027 1520.42 96.6422 1551.27 96.6422C1551.92 96.6422 1552.56 96.6489 1553.2 96.6622V96.6422H1567.73V32.1123H1523.92C1506.34 32.1123 1489.92 37.1103 1476.01 45.7633C1469.56 49.7802 1463.64 54.5847 1458.4 60.0424C1457.66 60.8221 1456.92 61.6151 1456.2 62.4211C1454.27 64.5771 1452.45 66.8256 1450.73 69.1593C1450.61 69.3148 1450.5 69.4708 1450.39 69.6271Z" fill="url(#paint18_linear_123_2491)"/>
<path d="M1567.73 116.728C1556.5 116.728 1545.39 118.419 1535.02 121.705C1524.65 124.991 1515.23 129.807 1507.29 135.878C1499.35 141.95 1493.06 149.158 1488.76 157.091C1484.47 165.024 1482.26 173.526 1482.26 182.112L1567.73 182.112V116.728Z" fill="url(#paint19_linear_123_2491)"/>
<path d="M1422.85 62.2405C1422.85 78.8799 1409.37 92.3687 1392.73 92.3687C1376.09 92.3687 1362.6 78.8799 1362.6 62.2405C1362.6 45.6012 1376.09 32.1123 1392.73 32.1123C1409.37 32.1123 1422.85 45.6012 1422.85 62.2405Z" fill="url(#paint20_linear_123_2491)"/>
</g>
<g clip-path="url(#clip8_123_2491)">
<path fill-rule="evenodd" clip-rule="evenodd" d="M1676.06 69.6271C1674.06 73.4167 1671.79 77.0473 1669.29 80.4949C1652.78 103.228 1625.99 118.01 1595.75 118.01C1595.25 118.01 1594.75 118.006 1594.26 117.998V118.01H1579.73V182.112H1623.1C1640.69 182.112 1657.1 177.114 1671.01 168.461C1678.39 163.871 1685.06 158.251 1690.83 151.804C1693.26 149.082 1695.53 146.213 1697.62 143.212C1699.1 140.571 1700.7 138.012 1702.43 135.543C1718.84 112.027 1746.1 96.6422 1776.95 96.6422C1777.59 96.6422 1778.23 96.6489 1778.87 96.6622V96.6422H1793.4V32.1123H1749.6C1732.01 32.1123 1715.6 37.1103 1701.69 45.7633C1695.23 49.7802 1689.32 54.5847 1684.08 60.0424C1683.33 60.8221 1682.6 61.6151 1681.88 62.4211C1679.95 64.5771 1678.12 66.8256 1676.41 69.1593C1676.29 69.3148 1676.18 69.4708 1676.06 69.6271Z" fill="url(#paint21_linear_123_2491)"/>
<path d="M1793.4 116.728C1782.18 116.728 1771.06 118.419 1760.69 121.705C1750.32 124.991 1740.9 129.807 1732.97 135.878C1725.03 141.95 1718.73 149.158 1714.44 157.091C1710.14 165.024 1707.93 173.526 1707.93 182.112L1793.4 182.112V116.728Z" fill="url(#paint22_linear_123_2491)"/>
<path d="M1648.53 62.2405C1648.53 78.8799 1635.04 92.3687 1618.4 92.3687C1601.76 92.3687 1588.27 78.8799 1588.27 62.2405C1588.27 45.6012 1601.76 32.1123 1618.4 32.1123C1635.04 32.1123 1648.53 45.6012 1648.53 62.2405Z" fill="url(#paint23_linear_123_2491)"/>
</g>
<g clip-path="url(#clip9_123_2491)">
<path fill-rule="evenodd" clip-rule="evenodd" d="M-13.2024 243.627C-15.2086 247.417 -17.4752 251.047 -19.9783 254.495C-36.4833 277.228 -63.2721 292.01 -93.5134 292.01C-94.0129 292.01 -94.5115 292.006 -95.0091 291.998V292.01H-109.539V356.112H-66.163C-48.5784 356.112 -32.1611 351.114 -18.2543 342.461C-10.8762 337.871 -4.20475 332.251 1.55953 325.804C3.99251 323.082 6.26388 320.213 8.35856 317.212C9.83437 314.571 11.4382 312.012 13.1616 309.543C29.5734 286.027 56.8316 270.642 87.6832 270.642C88.3258 270.642 88.9668 270.649 89.6062 270.662V270.642H104.136V206.112H60.3327C42.7481 206.112 26.3308 211.11 12.424 219.763C5.96821 223.78 0.0533981 228.585 -5.18606 234.042C-5.93455 234.822 -6.66925 235.615 -7.38979 236.421C-9.31725 238.577 -11.1433 240.826 -12.8604 243.159C-12.9749 243.315 -13.0889 243.471 -13.2024 243.627Z" fill="url(#paint24_linear_123_2491)"/>
<path d="M104.136 290.728C92.9121 290.728 81.7979 292.419 71.4282 295.705C61.0585 298.991 51.6363 303.807 43.6997 309.878C35.763 315.95 29.4674 323.158 25.1721 331.091C20.8768 339.024 18.6661 347.526 18.6661 356.112L104.136 356.112V290.728Z" fill="url(#paint25_linear_123_2491)"/>
<path d="M-40.7356 236.241C-40.7356 252.88 -54.2245 266.369 -70.8638 266.369C-87.5032 266.369 -100.992 252.88 -100.992 236.241C-100.992 219.601 -87.5032 206.112 -70.8638 206.112C-54.2245 206.112 -40.7356 219.601 -40.7356 236.241Z" fill="url(#paint26_linear_123_2491)"/>
</g>
<g clip-path="url(#clip10_123_2491)">
<path fill-rule="evenodd" clip-rule="evenodd" d="M212.473 243.627C210.467 247.417 208.201 251.047 205.697 254.495C189.193 277.228 162.404 292.01 132.162 292.01C131.663 292.01 131.164 292.006 130.667 291.998V292.01H116.137V356.112H159.513C177.097 356.112 193.515 351.114 207.422 342.461C214.8 337.871 221.471 332.251 227.235 325.804C229.668 323.082 231.94 320.213 234.034 317.212C235.51 314.571 237.114 312.012 238.837 309.543C255.249 286.027 282.507 270.642 313.359 270.642C314.002 270.642 314.643 270.649 315.282 270.662V270.642H329.812V206.112H286.009C268.424 206.112 252.007 211.11 238.1 219.763C231.644 223.78 225.729 228.585 220.49 234.042C219.741 234.822 219.007 235.615 218.286 236.421C216.359 238.577 214.533 240.826 212.815 243.159C212.701 243.315 212.587 243.471 212.473 243.627Z" fill="url(#paint27_linear_123_2491)"/>
<path d="M329.812 290.728C318.588 290.728 307.474 292.419 297.104 295.705C286.734 298.991 277.312 303.807 269.375 309.878C261.439 315.95 255.143 323.158 250.848 331.091C246.553 339.024 244.342 347.526 244.342 356.112L329.812 356.112V290.728Z" fill="url(#paint28_linear_123_2491)"/>
<path d="M184.94 236.241C184.94 252.88 171.451 266.369 154.812 266.369C138.173 266.369 124.684 252.88 124.684 236.241C124.684 219.601 138.173 206.112 154.812 206.112C171.451 206.112 184.94 219.601 184.94 236.241Z" fill="url(#paint29_linear_123_2491)"/>
</g>
<g clip-path="url(#clip11_123_2491)">
<path fill-rule="evenodd" clip-rule="evenodd" d="M438.149 243.627C436.143 247.417 433.876 251.047 431.373 254.495C414.868 277.228 388.079 292.01 357.838 292.01C357.339 292.01 356.84 292.006 356.342 291.998V292.01H341.812V356.112H385.189C402.773 356.112 419.19 351.114 433.097 342.461C440.475 337.871 447.147 332.251 452.911 325.804C455.344 323.082 457.615 320.213 459.71 317.212C461.186 314.571 462.79 312.012 464.513 309.543C480.925 286.027 508.183 270.642 539.035 270.642C539.677 270.642 540.318 270.649 540.958 270.662V270.642H555.488V206.112H511.684C494.1 206.112 477.682 211.11 463.776 219.763C457.32 223.78 451.405 228.585 446.166 234.042C445.417 234.822 444.682 235.615 443.962 236.421C442.034 238.577 440.208 240.826 438.491 243.159C438.377 243.315 438.263 243.471 438.149 243.627Z" fill="url(#paint30_linear_123_2491)"/>
<path d="M555.488 290.728C544.264 290.728 533.149 292.419 522.78 295.705C512.41 298.991 502.988 303.807 495.051 309.878C487.115 315.95 480.819 323.158 476.524 331.091C472.228 339.024 470.018 347.526 470.018 356.112L555.488 356.112V290.728Z" fill="url(#paint31_linear_123_2491)"/>
<path d="M410.616 236.241C410.616 252.88 397.127 266.369 380.488 266.369C363.848 266.369 350.36 252.88 350.36 236.241C350.36 219.601 363.848 206.112 380.488 206.112C397.127 206.112 410.616 219.601 410.616 236.241Z" fill="url(#paint32_linear_123_2491)"/>
</g>
<g clip-path="url(#clip12_123_2491)">
<path fill-rule="evenodd" clip-rule="evenodd" d="M663.825 243.627C661.819 247.417 659.552 251.047 657.049 254.495C640.544 277.228 613.755 292.01 583.514 292.01C583.014 292.01 582.516 292.006 582.018 291.998V292.01H567.488V356.112H610.864C628.449 356.112 644.866 351.114 658.773 342.461C666.151 337.871 672.823 332.251 678.587 325.804C681.02 323.082 683.291 320.213 685.386 317.212C686.862 314.571 688.466 312.012 690.189 309.543C706.601 286.027 733.859 270.642 764.711 270.642C765.353 270.642 765.994 270.649 766.634 270.662V270.642H781.163V206.112H737.36C719.775 206.112 703.358 211.11 689.451 219.763C682.996 223.78 677.081 228.585 671.841 234.042C671.093 234.822 670.358 235.615 669.638 236.421C667.71 238.577 665.884 240.826 664.167 243.159C664.052 243.315 663.938 243.471 663.825 243.627Z" fill="url(#paint33_linear_123_2491)"/>
<path d="M781.163 290.728C769.939 290.728 758.825 292.419 748.456 295.705C738.086 298.991 728.664 303.807 720.727 309.878C712.79 315.95 706.495 323.158 702.199 331.091C697.904 339.024 695.693 347.526 695.693 356.112L781.163 356.112V290.728Z" fill="url(#paint34_linear_123_2491)"/>
<path d="M636.292 236.241C636.292 252.88 622.803 266.369 606.163 266.369C589.524 266.369 576.035 252.88 576.035 236.241C576.035 219.601 589.524 206.112 606.163 206.112C622.803 206.112 636.292 219.601 636.292 236.241Z" fill="url(#paint35_linear_123_2491)"/>
</g>
<g clip-path="url(#clip13_123_2491)">
<path fill-rule="evenodd" clip-rule="evenodd" d="M889.501 243.627C887.495 247.417 885.228 251.047 882.725 254.495C866.22 277.228 839.431 292.01 809.19 292.01C808.69 292.01 808.192 292.006 807.694 291.998V292.01H793.164V356.112H836.54C854.125 356.112 870.542 351.114 884.449 342.461C891.827 337.871 898.498 332.251 904.263 325.804C906.696 323.082 908.967 320.213 911.062 317.212C912.537 314.571 914.141 312.012 915.865 309.543C932.276 286.027 959.535 270.642 990.386 270.642C991.029 270.642 991.67 270.649 992.309 270.662V270.642H1006.84V206.112H963.036C945.451 206.112 929.034 211.11 915.127 219.763C908.671 223.78 902.757 228.585 897.517 234.042C896.769 234.822 896.034 235.615 895.313 236.421C893.386 238.577 891.56 240.826 889.843 243.159C889.728 243.315 889.614 243.471 889.501 243.627Z" fill="url(#paint36_linear_123_2491)"/>
<path d="M1006.84 290.728C995.615 290.728 984.501 292.419 974.131 295.705C963.762 298.991 954.339 303.807 946.403 309.878C938.466 315.95 932.17 323.158 927.875 331.091C923.58 339.024 921.369 347.526 921.369 356.112L1006.84 356.112V290.728Z" fill="url(#paint37_linear_123_2491)"/>
<path d="M861.967 236.241C861.967 252.88 848.479 266.369 831.839 266.369C815.2 266.369 801.711 252.88 801.711 236.241C801.711 219.601 815.2 206.112 831.839 206.112C848.479 206.112 861.967 219.601 861.967 236.241Z" fill="url(#paint38_linear_123_2491)"/>
</g>
<g clip-path="url(#clip14_123_2491)">
<path fill-rule="evenodd" clip-rule="evenodd" d="M1115.17 243.627C1113.17 247.417 1110.9 251.047 1108.4 254.495C1091.89 277.228 1065.1 292.01 1034.86 292.01C1034.36 292.01 1033.86 292.006 1033.37 291.998V292.01H1018.84V356.112H1062.21C1079.8 356.112 1096.21 351.114 1110.12 342.461C1117.5 337.871 1124.17 332.251 1129.93 325.804C1132.37 323.082 1134.64 320.213 1136.73 317.212C1138.21 314.571 1139.81 312.012 1141.54 309.543C1157.95 286.027 1185.21 270.642 1216.06 270.642C1216.7 270.642 1217.34 270.649 1217.98 270.662V270.642H1232.51V206.112H1188.71C1171.12 206.112 1154.71 211.11 1140.8 219.763C1134.34 223.78 1128.43 228.585 1123.19 234.042C1122.44 234.822 1121.71 235.615 1120.99 236.421C1119.06 238.577 1117.23 240.826 1115.51 243.159C1115.4 243.315 1115.29 243.471 1115.17 243.627Z" fill="url(#paint39_linear_123_2491)"/>
<path d="M1232.51 290.728C1221.29 290.728 1210.17 292.419 1199.8 295.705C1189.43 298.991 1180.01 303.807 1172.07 309.878C1164.14 315.95 1157.84 323.158 1153.55 331.091C1149.25 339.024 1147.04 347.526 1147.04 356.112L1232.51 356.112V290.728Z" fill="url(#paint40_linear_123_2491)"/>
<path d="M1087.64 236.241C1087.64 252.88 1074.15 266.369 1057.51 266.369C1040.87 266.369 1027.38 252.88 1027.38 236.241C1027.38 219.601 1040.87 206.112 1057.51 206.112C1074.15 206.112 1087.64 219.601 1087.64 236.241Z" fill="url(#paint41_linear_123_2491)"/>
</g>
<g clip-path="url(#clip15_123_2491)">
<path fill-rule="evenodd" clip-rule="evenodd" d="M1340.85 243.627C1338.84 247.417 1336.58 251.047 1334.07 254.495C1317.57 277.228 1290.78 292.01 1260.54 292.01C1260.04 292.01 1259.54 292.006 1259.04 291.998V292.01H1244.51V356.112H1287.89C1305.47 356.112 1321.89 351.114 1335.8 342.461C1343.17 337.871 1349.85 332.251 1355.61 325.804C1358.04 323.082 1360.31 320.213 1362.41 317.212C1363.89 314.571 1365.49 312.012 1367.21 309.543C1383.62 286.027 1410.88 270.642 1441.73 270.642C1442.38 270.642 1443.02 270.649 1443.66 270.662V270.642H1458.19V206.112H1414.38C1396.8 206.112 1380.38 211.11 1366.47 219.763C1360.02 223.78 1354.1 228.585 1348.86 234.042C1348.12 234.822 1347.38 235.615 1346.66 236.421C1344.73 238.577 1342.91 240.826 1341.19 243.159C1341.08 243.315 1340.96 243.471 1340.85 243.627Z" fill="url(#paint42_linear_123_2491)"/>
<path d="M1458.19 290.728C1446.96 290.728 1435.85 292.419 1425.48 295.705C1415.11 298.991 1405.69 303.807 1397.75 309.878C1389.81 315.95 1383.52 323.158 1379.22 331.091C1374.93 339.024 1372.72 347.526 1372.72 356.112L1458.19 356.112V290.728Z" fill="url(#paint43_linear_123_2491)"/>
<path d="M1313.32 236.241C1313.32 252.88 1299.83 266.369 1283.19 266.369C1266.55 266.369 1253.06 252.88 1253.06 236.241C1253.06 219.601 1266.55 206.112 1283.19 206.112C1299.83 206.112 1313.32 219.601 1313.32 236.241Z" fill="url(#paint44_linear_123_2491)"/>
</g>
<g clip-path="url(#clip16_123_2491)">
<path fill-rule="evenodd" clip-rule="evenodd" d="M1566.52 243.627C1564.52 247.417 1562.25 251.047 1559.75 254.495C1543.24 277.228 1516.45 292.01 1486.21 292.01C1485.71 292.01 1485.22 292.006 1484.72 291.998V292.01H1470.19V356.112H1513.56C1531.15 356.112 1547.57 351.114 1561.47 342.461C1568.85 337.871 1575.52 332.251 1581.29 325.804C1583.72 323.082 1585.99 320.213 1588.09 317.212C1589.56 314.571 1591.16 312.012 1592.89 309.543C1609.3 286.027 1636.56 270.642 1667.41 270.642C1668.05 270.642 1668.69 270.649 1669.33 270.662V270.642H1683.86V206.112H1640.06C1622.47 206.112 1606.06 211.11 1592.15 219.763C1585.69 223.78 1579.78 228.585 1574.54 234.042C1573.79 234.822 1573.06 235.615 1572.34 236.421C1570.41 238.577 1568.58 240.826 1566.87 243.159C1566.75 243.315 1566.64 243.471 1566.52 243.627Z" fill="url(#paint45_linear_123_2491)"/>
<path d="M1683.86 290.728C1672.64 290.728 1661.52 292.419 1651.15 295.705C1640.79 298.991 1631.36 303.807 1623.43 309.878C1615.49 315.95 1609.19 323.158 1604.9 331.091C1600.6 339.024 1598.39 347.526 1598.39 356.112L1683.86 356.112V290.728Z" fill="url(#paint46_linear_123_2491)"/>
<path d="M1538.99 236.241C1538.99 252.88 1525.5 266.369 1508.86 266.369C1492.22 266.369 1478.73 252.88 1478.73 236.241C1478.73 219.601 1492.22 206.112 1508.86 206.112C1525.5 206.112 1538.99 219.601 1538.99 236.241Z" fill="url(#paint47_linear_123_2491)"/>
</g>
<g clip-path="url(#clip17_123_2491)">
<path fill-rule="evenodd" clip-rule="evenodd" d="M1792.2 243.627C1790.19 247.417 1787.93 251.047 1785.42 254.495C1768.92 277.228 1742.13 292.01 1711.89 292.01C1711.39 292.01 1710.89 292.006 1710.39 291.998V292.01H1695.86V356.112H1739.24C1756.82 356.112 1773.24 351.114 1787.15 342.461C1794.53 337.871 1801.2 332.251 1806.96 325.804C1809.39 323.082 1811.67 320.213 1813.76 317.212C1815.24 314.571 1816.84 312.012 1818.56 309.543C1834.98 286.027 1862.23 270.642 1893.09 270.642C1893.73 270.642 1894.37 270.649 1895.01 270.662V270.642H1909.54V206.112H1865.74C1848.15 206.112 1831.73 211.11 1817.83 219.763C1811.37 223.78 1805.46 228.585 1800.22 234.042C1799.47 234.822 1798.73 235.615 1798.01 236.421C1796.09 238.577 1794.26 240.826 1792.54 243.159C1792.43 243.315 1792.31 243.471 1792.2 243.627Z" fill="url(#paint48_linear_123_2491)"/>
<path d="M1909.54 290.728C1898.31 290.728 1887.2 292.419 1876.83 295.705C1866.46 298.991 1857.04 303.807 1849.1 309.878C1841.17 315.95 1834.87 323.158 1830.57 331.091C1826.28 339.024 1824.07 347.526 1824.07 356.112L1909.54 356.112V290.728Z" fill="url(#paint49_linear_123_2491)"/>
<path d="M1764.67 236.241C1764.67 252.88 1751.18 266.369 1734.54 266.369C1717.9 266.369 1704.41 252.88 1704.41 236.241C1704.41 219.601 1717.9 206.112 1734.54 206.112C1751.18 206.112 1764.67 219.601 1764.67 236.241Z" fill="url(#paint50_linear_123_2491)"/>
</g>
</g>
<defs>
<linearGradient id="paint0_linear_123_2491" x1="54.7927" y1="39.8622" x2="90.5204" y2="190.522" gradientUnits="userSpaceOnUse">
<stop stop-color="#0171EC"/>
<stop offset="1" stop-color="#05E9FE"/>
</linearGradient>
<linearGradient id="paint1_linear_123_2491" x1="54.7927" y1="39.8622" x2="90.5204" y2="190.522" gradientUnits="userSpaceOnUse">
<stop stop-color="#0171EC"/>
<stop offset="1" stop-color="#05E9FE"/>
</linearGradient>
<linearGradient id="paint2_linear_123_2491" x1="54.7927" y1="39.8622" x2="90.5204" y2="190.522" gradientUnits="userSpaceOnUse">
<stop stop-color="#0171EC"/>
<stop offset="1" stop-color="#05E9FE"/>
</linearGradient>
<linearGradient id="paint3_linear_123_2491" x1="280.468" y1="39.8622" x2="316.196" y2="190.522" gradientUnits="userSpaceOnUse">
<stop stop-color="#0171EC"/>
<stop offset="1" stop-color="#05E9FE"/>
</linearGradient>
<linearGradient id="paint4_linear_123_2491" x1="280.468" y1="39.8622" x2="316.196" y2="190.522" gradientUnits="userSpaceOnUse">
<stop stop-color="#0171EC"/>
<stop offset="1" stop-color="#05E9FE"/>
</linearGradient>
<linearGradient id="paint5_linear_123_2491" x1="280.468" y1="39.8622" x2="316.196" y2="190.522" gradientUnits="userSpaceOnUse">
<stop stop-color="#0171EC"/>
<stop offset="1" stop-color="#05E9FE"/>
</linearGradient>
<linearGradient id="paint6_linear_123_2491" x1="506.144" y1="39.8622" x2="541.872" y2="190.522" gradientUnits="userSpaceOnUse">
<stop stop-color="#0171EC"/>
<stop offset="1" stop-color="#05E9FE"/>
</linearGradient>
<linearGradient id="paint7_linear_123_2491" x1="506.144" y1="39.8622" x2="541.872" y2="190.522" gradientUnits="userSpaceOnUse">
<stop stop-color="#0171EC"/>
<stop offset="1" stop-color="#05E9FE"/>
</linearGradient>
<linearGradient id="paint8_linear_123_2491" x1="506.144" y1="39.8622" x2="541.872" y2="190.522" gradientUnits="userSpaceOnUse">
<stop stop-color="#0171EC"/>
<stop offset="1" stop-color="#05E9FE"/>
</linearGradient>
<linearGradient id="paint9_linear_123_2491" x1="731.82" y1="39.8622" x2="767.548" y2="190.522" gradientUnits="userSpaceOnUse">
<stop stop-color="#0171EC"/>
<stop offset="1" stop-color="#05E9FE"/>
</linearGradient>
<linearGradient id="paint10_linear_123_2491" x1="731.82" y1="39.8622" x2="767.548" y2="190.522" gradientUnits="userSpaceOnUse">
<stop stop-color="#0171EC"/>
<stop offset="1" stop-color="#05E9FE"/>
</linearGradient>
<linearGradient id="paint11_linear_123_2491" x1="731.82" y1="39.8622" x2="767.548" y2="190.522" gradientUnits="userSpaceOnUse">
<stop stop-color="#0171EC"/>
<stop offset="1" stop-color="#05E9FE"/>
</linearGradient>
<linearGradient id="paint12_linear_123_2491" x1="957.492" y1="39.8622" x2="993.22" y2="190.522" gradientUnits="userSpaceOnUse">
<stop stop-color="#0171EC"/>
<stop offset="1" stop-color="#05E9FE"/>
</linearGradient>
<linearGradient id="paint13_linear_123_2491" x1="957.492" y1="39.8622" x2="993.22" y2="190.522" gradientUnits="userSpaceOnUse">
<stop stop-color="#0171EC"/>
<stop offset="1" stop-color="#05E9FE"/>
</linearGradient>
<linearGradient id="paint14_linear_123_2491" x1="957.492" y1="39.8622" x2="993.22" y2="190.522" gradientUnits="userSpaceOnUse">
<stop stop-color="#0171EC"/>
<stop offset="1" stop-color="#05E9FE"/>
</linearGradient>
<linearGradient id="paint15_linear_123_2491" x1="1183.17" y1="39.8622" x2="1218.9" y2="190.522" gradientUnits="userSpaceOnUse">
<stop stop-color="#0171EC"/>
<stop offset="1" stop-color="#05E9FE"/>
</linearGradient>
<linearGradient id="paint16_linear_123_2491" x1="1183.17" y1="39.8622" x2="1218.9" y2="190.522" gradientUnits="userSpaceOnUse">
<stop stop-color="#0171EC"/>
<stop offset="1" stop-color="#05E9FE"/>
</linearGradient>
<linearGradient id="paint17_linear_123_2491" x1="1183.17" y1="39.8622" x2="1218.9" y2="190.522" gradientUnits="userSpaceOnUse">
<stop stop-color="#0171EC"/>
<stop offset="1" stop-color="#05E9FE"/>
</linearGradient>
<linearGradient id="paint18_linear_123_2491" x1="1408.84" y1="39.8622" x2="1444.57" y2="190.522" gradientUnits="userSpaceOnUse">
<stop stop-color="#0171EC"/>
<stop offset="1" stop-color="#05E9FE"/>
</linearGradient>
<linearGradient id="paint19_linear_123_2491" x1="1408.84" y1="39.8622" x2="1444.57" y2="190.522" gradientUnits="userSpaceOnUse">
<stop stop-color="#0171EC"/>
<stop offset="1" stop-color="#05E9FE"/>
</linearGradient>
<linearGradient id="paint20_linear_123_2491" x1="1408.84" y1="39.8622" x2="1444.57" y2="190.522" gradientUnits="userSpaceOnUse">
<stop stop-color="#0171EC"/>
<stop offset="1" stop-color="#05E9FE"/>
</linearGradient>
<linearGradient id="paint21_linear_123_2491" x1="1634.52" y1="39.8622" x2="1670.25" y2="190.522" gradientUnits="userSpaceOnUse">
<stop stop-color="#0171EC"/>
<stop offset="1" stop-color="#05E9FE"/>
</linearGradient>
<linearGradient id="paint22_linear_123_2491" x1="1634.52" y1="39.8622" x2="1670.25" y2="190.522" gradientUnits="userSpaceOnUse">
<stop stop-color="#0171EC"/>
<stop offset="1" stop-color="#05E9FE"/>
</linearGradient>
<linearGradient id="paint23_linear_123_2491" x1="1634.52" y1="39.8622" x2="1670.25" y2="190.522" gradientUnits="userSpaceOnUse">
<stop stop-color="#0171EC"/>
<stop offset="1" stop-color="#05E9FE"/>
</linearGradient>
<linearGradient id="paint24_linear_123_2491" x1="-54.7464" y1="213.862" x2="-19.0186" y2="364.522" gradientUnits="userSpaceOnUse">
<stop stop-color="#0171EC"/>
<stop offset="1" stop-color="#05E9FE"/>
</linearGradient>
<linearGradient id="paint25_linear_123_2491" x1="-54.7464" y1="213.862" x2="-19.0186" y2="364.522" gradientUnits="userSpaceOnUse">
<stop stop-color="#0171EC"/>
<stop offset="1" stop-color="#05E9FE"/>
</linearGradient>
<linearGradient id="paint26_linear_123_2491" x1="-54.7464" y1="213.862" x2="-19.0186" y2="364.522" gradientUnits="userSpaceOnUse">
<stop stop-color="#0171EC"/>
<stop offset="1" stop-color="#05E9FE"/>
</linearGradient>
<linearGradient id="paint27_linear_123_2491" x1="170.929" y1="213.862" x2="206.657" y2="364.522" gradientUnits="userSpaceOnUse">
<stop stop-color="#0171EC"/>
<stop offset="1" stop-color="#05E9FE"/>
</linearGradient>
<linearGradient id="paint28_linear_123_2491" x1="170.929" y1="213.862" x2="206.657" y2="364.522" gradientUnits="userSpaceOnUse">
<stop stop-color="#0171EC"/>
<stop offset="1" stop-color="#05E9FE"/>
</linearGradient>
<linearGradient id="paint29_linear_123_2491" x1="170.929" y1="213.862" x2="206.657" y2="364.522" gradientUnits="userSpaceOnUse">
<stop stop-color="#0171EC"/>
<stop offset="1" stop-color="#05E9FE"/>
</linearGradient>
<linearGradient id="paint30_linear_123_2491" x1="396.605" y1="213.862" x2="432.333" y2="364.522" gradientUnits="userSpaceOnUse">
<stop stop-color="#0171EC"/>
<stop offset="1" stop-color="#05E9FE"/>
</linearGradient>
<linearGradient id="paint31_linear_123_2491" x1="396.605" y1="213.862" x2="432.333" y2="364.522" gradientUnits="userSpaceOnUse">
<stop stop-color="#0171EC"/>
<stop offset="1" stop-color="#05E9FE"/>
</linearGradient>
<linearGradient id="paint32_linear_123_2491" x1="396.605" y1="213.862" x2="432.333" y2="364.522" gradientUnits="userSpaceOnUse">
<stop stop-color="#0171EC"/>
<stop offset="1" stop-color="#05E9FE"/>
</linearGradient>
<linearGradient id="paint33_linear_123_2491" x1="622.281" y1="213.862" x2="658.009" y2="364.522" gradientUnits="userSpaceOnUse">
<stop stop-color="#0171EC"/>
<stop offset="1" stop-color="#05E9FE"/>
</linearGradient>
<linearGradient id="paint34_linear_123_2491" x1="622.281" y1="213.862" x2="658.009" y2="364.522" gradientUnits="userSpaceOnUse">
<stop stop-color="#0171EC"/>
<stop offset="1" stop-color="#05E9FE"/>
</linearGradient>
<linearGradient id="paint35_linear_123_2491" x1="622.281" y1="213.862" x2="658.009" y2="364.522" gradientUnits="userSpaceOnUse">
<stop stop-color="#0171EC"/>
<stop offset="1" stop-color="#05E9FE"/>
</linearGradient>
<linearGradient id="paint36_linear_123_2491" x1="847.957" y1="213.862" x2="883.684" y2="364.522" gradientUnits="userSpaceOnUse">
<stop stop-color="#0171EC"/>
<stop offset="1" stop-color="#05E9FE"/>
</linearGradient>
<linearGradient id="paint37_linear_123_2491" x1="847.957" y1="213.862" x2="883.684" y2="364.522" gradientUnits="userSpaceOnUse">
<stop stop-color="#0171EC"/>
<stop offset="1" stop-color="#05E9FE"/>
</linearGradient>
<linearGradient id="paint38_linear_123_2491" x1="847.957" y1="213.862" x2="883.684" y2="364.522" gradientUnits="userSpaceOnUse">
<stop stop-color="#0171EC"/>
<stop offset="1" stop-color="#05E9FE"/>
</linearGradient>
<linearGradient id="paint39_linear_123_2491" x1="1073.63" y1="213.862" x2="1109.36" y2="364.522" gradientUnits="userSpaceOnUse">
<stop stop-color="#0171EC"/>
<stop offset="1" stop-color="#05E9FE"/>
</linearGradient>
<linearGradient id="paint40_linear_123_2491" x1="1073.63" y1="213.862" x2="1109.36" y2="364.522" gradientUnits="userSpaceOnUse">
<stop stop-color="#0171EC"/>
<stop offset="1" stop-color="#05E9FE"/>
</linearGradient>
<linearGradient id="paint41_linear_123_2491" x1="1073.63" y1="213.862" x2="1109.36" y2="364.522" gradientUnits="userSpaceOnUse">
<stop stop-color="#0171EC"/>
<stop offset="1" stop-color="#05E9FE"/>
</linearGradient>
<linearGradient id="paint42_linear_123_2491" x1="1299.3" y1="213.862" x2="1335.03" y2="364.522" gradientUnits="userSpaceOnUse">
<stop stop-color="#0171EC"/>
<stop offset="1" stop-color="#05E9FE"/>
</linearGradient>
<linearGradient id="paint43_linear_123_2491" x1="1299.3" y1="213.862" x2="1335.03" y2="364.522" gradientUnits="userSpaceOnUse">
<stop stop-color="#0171EC"/>
<stop offset="1" stop-color="#05E9FE"/>
</linearGradient>
<linearGradient id="paint44_linear_123_2491" x1="1299.3" y1="213.862" x2="1335.03" y2="364.522" gradientUnits="userSpaceOnUse">
<stop stop-color="#0171EC"/>
<stop offset="1" stop-color="#05E9FE"/>
</linearGradient>
<linearGradient id="paint45_linear_123_2491" x1="1524.98" y1="213.862" x2="1560.71" y2="364.522" gradientUnits="userSpaceOnUse">
<stop stop-color="#0171EC"/>
<stop offset="1" stop-color="#05E9FE"/>
</linearGradient>
<linearGradient id="paint46_linear_123_2491" x1="1524.98" y1="213.862" x2="1560.71" y2="364.522" gradientUnits="userSpaceOnUse">
<stop stop-color="#0171EC"/>
<stop offset="1" stop-color="#05E9FE"/>
</linearGradient>
<linearGradient id="paint47_linear_123_2491" x1="1524.98" y1="213.862" x2="1560.71" y2="364.522" gradientUnits="userSpaceOnUse">
<stop stop-color="#0171EC"/>
<stop offset="1" stop-color="#05E9FE"/>
</linearGradient>
<linearGradient id="paint48_linear_123_2491" x1="1750.66" y1="213.862" x2="1786.38" y2="364.522" gradientUnits="userSpaceOnUse">
<stop stop-color="#0171EC"/>
<stop offset="1" stop-color="#05E9FE"/>
</linearGradient>
<linearGradient id="paint49_linear_123_2491" x1="1750.66" y1="213.862" x2="1786.38" y2="364.522" gradientUnits="userSpaceOnUse">
<stop stop-color="#0171EC"/>
<stop offset="1" stop-color="#05E9FE"/>
</linearGradient>
<linearGradient id="paint50_linear_123_2491" x1="1750.66" y1="213.862" x2="1786.38" y2="364.522" gradientUnits="userSpaceOnUse">
<stop stop-color="#0171EC"/>
<stop offset="1" stop-color="#05E9FE"/>
</linearGradient>
<clipPath id="clip0_123_2491">
<rect width="1800" height="388" fill="white" transform="translate(0 0.112305)"/>
</clipPath>
<clipPath id="clip1_123_2491">
<rect width="213.675" height="150" fill="white" transform="translate(0 32.1123)"/>
</clipPath>
<clipPath id="clip2_123_2491">
<rect width="213.675" height="150" fill="white" transform="translate(225.676 32.1123)"/>
</clipPath>
<clipPath id="clip3_123_2491">
<rect width="213.675" height="150" fill="white" transform="translate(451.352 32.1123)"/>
</clipPath>
<clipPath id="clip4_123_2491">
<rect width="213.675" height="150" fill="white" transform="translate(677.027 32.1123)"/>
</clipPath>
<clipPath id="clip5_123_2491">
<rect width="213.675" height="150" fill="white" transform="translate(902.699 32.1123)"/>
</clipPath>
<clipPath id="clip6_123_2491">
<rect width="213.675" height="150" fill="white" transform="translate(1128.38 32.1123)"/>
</clipPath>
<clipPath id="clip7_123_2491">
<rect width="213.675" height="150" fill="white" transform="translate(1354.05 32.1123)"/>
</clipPath>
<clipPath id="clip8_123_2491">
<rect width="213.675" height="150" fill="white" transform="translate(1579.73 32.1123)"/>
</clipPath>
<clipPath id="clip9_123_2491">
<rect width="213.675" height="150" fill="white" transform="translate(-109.539 206.112)"/>
</clipPath>
<clipPath id="clip10_123_2491">
<rect width="213.675" height="150" fill="white" transform="translate(116.137 206.112)"/>
</clipPath>
<clipPath id="clip11_123_2491">
<rect width="213.675" height="150" fill="white" transform="translate(341.812 206.112)"/>
</clipPath>
<clipPath id="clip12_123_2491">
<rect width="213.675" height="150" fill="white" transform="translate(567.488 206.112)"/>
</clipPath>
<clipPath id="clip13_123_2491">
<rect width="213.675" height="150" fill="white" transform="translate(793.164 206.112)"/>
</clipPath>
<clipPath id="clip14_123_2491">
<rect width="213.675" height="150" fill="white" transform="translate(1018.84 206.112)"/>
</clipPath>
<clipPath id="clip15_123_2491">
<rect width="213.675" height="150" fill="white" transform="translate(1244.51 206.112)"/>
</clipPath>
<clipPath id="clip16_123_2491">
<rect width="213.675" height="150" fill="white" transform="translate(1470.19 206.112)"/>
</clipPath>
<clipPath id="clip17_123_2491">
<rect width="213.675" height="150" fill="white" transform="translate(1695.86 206.112)"/>
</clipPath>
</defs>
</svg>
