<svg width="500" height="351" viewBox="0 0 500 351" fill="none" xmlns="http://www.w3.org/2000/svg">
<g clip-path="url(#clip0_123_2437)">
<path fill-rule="evenodd" clip-rule="evenodd" d="M225.428 87.7847C220.733 96.6523 215.429 105.148 209.572 113.215C170.951 166.41 108.265 201 37.5 201C36.3311 201 35.1644 200.991 34 200.972V201H0V351H101.5C142.648 351 181.064 339.305 213.606 319.057C230.871 308.314 246.482 295.165 259.971 280.077C265.664 273.709 270.979 266.996 275.88 259.973C279.334 253.794 283.087 247.806 287.12 242.027C325.523 187 389.307 151 461.5 151C463.004 151 464.504 151.016 466 151.047V151H500V0H397.5C356.352 0 317.936 11.6954 285.394 31.9434C270.287 41.3428 256.446 52.5853 244.186 65.3565C242.435 67.181 240.715 69.0366 239.029 70.9226C234.519 75.9675 230.246 81.2291 226.228 86.6899C225.96 87.054 225.693 87.4189 225.428 87.7847Z" fill="url(#paint0_linear_123_2437)"/>
<path d="M500 198C473.736 198 447.728 201.957 423.463 209.646C399.198 217.335 377.15 228.605 358.579 242.813C340.007 257.02 325.275 273.887 315.224 292.449C305.173 311.012 300 330.908 300 351L500 351V198Z" fill="url(#paint1_linear_123_2437)"/>
<path d="M161 70.5C161 109.436 129.436 141 90.5 141C51.5639 141 20 109.436 20 70.5C20 31.5639 51.5639 0 90.5 0C129.436 0 161 31.5639 161 70.5Z" fill="url(#paint2_linear_123_2437)"/>
</g>
<defs>
<linearGradient id="paint0_linear_123_2437" x1="128.215" y1="18.1349" x2="211.818" y2="370.678" gradientUnits="userSpaceOnUse">
<stop stop-color="#0171EC"/>
<stop offset="1" stop-color="#05E9FE"/>
</linearGradient>
<linearGradient id="paint1_linear_123_2437" x1="128.215" y1="18.1349" x2="211.818" y2="370.678" gradientUnits="userSpaceOnUse">
<stop stop-color="#0171EC"/>
<stop offset="1" stop-color="#05E9FE"/>
</linearGradient>
<linearGradient id="paint2_linear_123_2437" x1="128.215" y1="18.1349" x2="211.818" y2="370.678" gradientUnits="userSpaceOnUse">
<stop stop-color="#0171EC"/>
<stop offset="1" stop-color="#05E9FE"/>
</linearGradient>
<clipPath id="clip0_123_2437">
<rect width="500" height="351" fill="white"/>
</clipPath>
</defs>
</svg>
