<svg width="359" height="359" viewBox="0 0 359 359" fill="none" xmlns="http://www.w3.org/2000/svg">
<path d="M358.284 196.619C337.054 196.619 316.032 200.801 296.418 208.925C276.804 217.05 258.982 228.958 243.97 243.97C228.958 258.982 217.05 276.804 208.925 296.418C200.801 316.032 196.619 337.054 196.619 358.284L358.284 358.284V196.619Z" fill="url(#paint0_linear_122_1271)"/>
<path d="M101.951 129.332C101.951 157.485 79.1283 180.307 50.9754 180.307C22.8225 180.307 0 157.485 0 129.332C0 101.179 22.8225 78.3564 50.9754 78.3564C79.1283 78.3564 101.951 101.179 101.951 129.332Z" fill="url(#paint1_linear_122_1271)"/>
<path d="M358.284 132.682V0C277.578 13.7409 228.972 42.7286 192.899 73.4104C156.826 104.092 141.082 140.421 128.242 168.091C115.403 195.761 111.048 203.209 84.9104 224.855C64.0003 242.173 22.0106 238.176 0 236.795V357.64C25.4345 360.652 72.044 352.37 92.1695 347.852C154.965 330.283 179.48 273.181 184.676 262.64C189.873 252.1 202.708 201.633 249.488 168.091C286.482 141.566 333.525 132.682 358.284 132.682Z" fill="url(#paint2_linear_122_1271)"/>
<defs>
<linearGradient id="paint0_linear_122_1271" x1="91.8746" y1="18.5112" x2="207.123" y2="359.676" gradientUnits="userSpaceOnUse">
<stop stop-color="#0171EC"/>
<stop offset="1" stop-color="#05E9FE"/>
</linearGradient>
<linearGradient id="paint1_linear_122_1271" x1="91.8746" y1="18.5112" x2="207.123" y2="359.676" gradientUnits="userSpaceOnUse">
<stop stop-color="#0171EC"/>
<stop offset="1" stop-color="#05E9FE"/>
</linearGradient>
<linearGradient id="paint2_linear_122_1271" x1="91.8746" y1="18.5112" x2="207.123" y2="359.676" gradientUnits="userSpaceOnUse">
<stop stop-color="#0171EC"/>
<stop offset="1" stop-color="#05E9FE"/>
</linearGradient>
</defs>
</svg>
